<svg xmlns="http://www.w3.org/2000/svg" width="32" height="24" viewBox="0 0 32 24"><defs><linearGradient id="a" x1="260" x2="260" y1="457.34" y2="434.34" gradientUnits="userSpaceOnUse"><stop offset="0" stop-color="#e19c00" stop-opacity="0"/><stop offset="1" stop-color="#e19c00" stop-opacity=".15"/></linearGradient></defs><path fill="#2a95d9" d="M9.1 22.68c.9.88 2.35.88 3.25 0l11.16-10.93c.32-.32.56-.7.72-1.1 1.12.32 2.22.48 3.18.47 2.37 0 3.16-1.03 3.42-1.64.26-.6.44-1.87-1.22-3.54l-.06-.05a13.38 13.38 0 0 0-4.24-2.65l-.94-.35v-.02A2.5 2.5 0 0 0 21.88.43L15.2.34a3.28 3.28 0 0 0-2.36.95L1.67 12.22c-.9.88-.9 2.32 0 3.2zm8.6-18.42a1.94 1.94 0 0 1 2.69 0c.44.43.62 1.03.54 1.6a13.44 13.44 0 0 0 3.5 1.7l-.04-2.63.16.07a11.64 11.64 0 0 1 3.66 2.27c.8.8.89 1.32.82 1.47-.21.5-2.46.93-5.87-.47-1-.4-1.94-.92-2.7-1.47l-.08.1c-.74.73-1.95.73-2.7 0a1.84 1.84 0 0 1 .01-2.64z"/><path fill="url(#a)" d="M253.1 456.68c.9.88 2.35.88 3.25 0l11.16-10.94c.32-.3.56-.68.72-1.08 1.12.3 2.22.47 3.18.46 2.37 0 3.16-1.03 3.42-1.64.26-.6.44-1.87-1.22-3.54l-.06-.05a13.38 13.38 0 0 0-4.24-2.65l-.94-.35v-.02a2.5 2.5 0 0 0-2.49-2.44l-6.68-.09a3.28 3.28 0 0 0-2.36.95l-11.17 10.93c-.9.88-.9 2.32 0 3.2zm8.6-18.42a1.94 1.94 0 0 1 2.69 0c.44.43.62 1.03.54 1.6a13.44 13.44 0 0 0 3.5 1.7l-.04-2.63.16.07a11.64 11.64 0 0 1 3.66 2.27c.8.8.89 1.32.82 1.47-.21.5-2.46.93-5.87-.47-1-.4-1.94-.92-2.7-1.47l-.08.1c-.74.73-1.95.73-2.7 0a1.84 1.84 0 0 1 .01-2.64z" transform="translate(-244 -434)"/></svg>