<svg xmlns="http://www.w3.org/2000/svg" width="17" height="14" viewBox="0 0 17 14"><path d="M13.03 11.98c0 .32.12.6.36.83.24.23.53.35.87.35.34 0 .63-.12.87-.35.24-.23.36-.51.36-.83 0-.33-.12-.61-.36-.84a1.22 1.22 0 0 0-.87-.35c-.34 0-.63.12-.87.35-.24.23-.36.51-.36.84zm3.5-10.47a.59.59 0 0 0-.43-.17H4.56a4.57 4.57 0 0 0-.17-.76.7.7 0 0 0-.13-.22.6.6 0 0 0-.47-.21H1.34A.6.6 0 0 0 .9.33a.57.57 0 0 0-.18.42c0 .16.06.29.18.41a.6.6 0 0 0 .43.18H3.3L5 8.94l-.2.35c-.12.21-.21.39-.28.55a.96.96 0 0 0-.1.36c0 .16.05.3.17.42.13.11.27.17.44.17h9.84c.17 0 .31-.06.44-.17a.57.57 0 0 0 .18-.42c0-.16-.06-.3-.18-.41a.6.6 0 0 0-.44-.18H6.03c.15-.29.23-.49.23-.59l-.03-.2a4.81 4.81 0 0 0-.05-.25l-.05-.2 10.04-1.12c.16-.02.3-.09.4-.2.1-.12.15-.25.15-.39V1.93c0-.16-.06-.3-.18-.42zM4.42 11.98c0 .32.12.6.36.83.24.23.53.35.87.35.34 0 .63-.12.87-.35.24-.23.36-.51.36-.83 0-.33-.12-.61-.36-.84a1.22 1.22 0 0 0-.87-.35c-.34 0-.63.12-.87.35-.24.23-.36.51-.36.84z"/></svg>