<svg xmlns="http://www.w3.org/2000/svg" width="51" height="48" viewBox="0 0 51 48"><path d="M50.99 31.98l-2.43-16.23c-.04-4.71-2.92-9.08-7.92-12C36.51 1.33 31.13 0 25.5 0c-5.63 0-11.01 1.33-15.14 3.75-5 2.92-7.88 7.29-7.92 12L.01 31.98l-.01.17c0 4.77 3.2 9.2 8.78 12.13C13.35 46.68 19.29 48 25.5 48c6.21 0 12.15-1.32 16.72-3.72C47.8 41.34 51 36.92 51 32.15l-.01-.17zM11.53 5.74C15.32 3.52 20.28 2.3 25.5 2.3c5.22 0 10.18 1.21 13.97 3.43 4.3 2.51 6.77 6.2 6.77 10.1 0 3.92-2.47 7.6-6.77 10.12-3.79 2.21-8.75 3.43-13.97 3.43-5.22 0-10.18-1.22-13.97-3.43-4.3-2.51-6.77-6.2-6.77-10.11 0-3.91 2.47-7.6 6.77-10.11zm29.61 36.5c-4.24 2.23-9.8 3.45-15.64 3.45s-11.4-1.22-15.64-3.45c-4.76-2.5-7.5-6.15-7.54-10l1.6-10.67a16.72 16.72 0 0 0 6.44 6.38c4.13 2.42 9.51 3.75 15.14 3.75 5.63 0 11.01-1.33 15.14-3.75 2.92-1.7 5.11-3.9 6.44-6.38l1.6 10.66c-.04 3.86-2.78 7.5-7.54 10zM25.5 27.09c7.95 0 14.97-3.06 17.46-7.61.64-1.16.96-2.39.96-3.63 0-3.12-2-6-5.63-8.13-3.43-2-7.98-3.1-12.79-3.1-4.81 0-9.36 1.1-12.79 3.1-3.63 2.12-5.63 5.01-5.63 8.13 0 1.24.32 2.47.96 3.63 2.49 4.55 9.51 7.6 17.46 7.6zm0-2.3c-6.67 0-12.73-2.39-15.08-5.86 2.35-3.48 8.41-5.86 15.08-5.86s12.73 2.38 15.08 5.86c-2.35 3.47-8.41 5.85-15.08 5.85zM9.4 15.84c0-2.27 1.59-4.45 4.48-6.14 3.09-1.8 7.21-2.8 11.62-2.8 4.41 0 8.53 1 11.62 2.8 2.89 1.69 4.48 3.87 4.48 6.14 0 .2-.01.4-.04.6-3.2-3.46-9.29-5.68-16.06-5.68s-12.86 2.22-16.06 5.68c-.03-.2-.04-.4-.04-.6zm10.9 2.65h-.36c-.64 0-1.16.52-1.16 1.15 0 .64.52 1.16 1.16 1.16h.36a1.16 1.16 0 0 0 0-2.3zm13.76 0h-8.27c-.64 0-1.16.52-1.16 1.15 0 .64.52 1.16 1.16 1.16h8.27a1.16 1.16 0 0 0 0-2.3z"/></svg>