<svg xmlns="http://www.w3.org/2000/svg" width="20" height="20" viewBox="0 0 20 20"><path fill="#ffdc36" d="M14.48 0H5.52A5.53 5.53 0 0 0 0 5.52v8.96A5.53 5.53 0 0 0 5.52 20h8.96A5.53 5.53 0 0 0 20 14.48V5.52A5.53 5.53 0 0 0 14.48 0zm3.75 14.48a3.75 3.75 0 0 1-3.75 3.75H5.52a3.75 3.75 0 0 1-3.75-3.75V5.52a3.75 3.75 0 0 1 3.75-3.75h8.96a3.75 3.75 0 0 1 3.75 3.75v8.96zM10 4.85a5.16 5.16 0 1 0 0 10.32 5.16 5.16 0 0 0 0-10.32zm0 8.53a3.39 3.39 0 0 1 0-6.76 3.39 3.39 0 0 1 0 6.76zm5.37-10.04c-.34 0-.68.14-.92.38s-.38.58-.38.92c0 .34.14.68.38.92s.58.38.92.38c.34 0 .68-.14.92-.38a1.31 1.31 0 0 0 0-1.84 1.32 1.32 0 0 0-.92-.38z"/></svg>