<svg xmlns="http://www.w3.org/2000/svg" width="17" height="17" viewBox="0 0 17 17"><path fill="#131c27" d="M16.36 14.62l-3.3-3.3a6.59 6.59 0 0 0 1.2-3.83 6.78 6.78 0 0 0-4.14-6.24 6.65 6.65 0 0 0-5.26 0 6.75 6.75 0 0 0 2.63 13c1.4 0 2.69-.39 3.84-1.19l3.3 3.3c.22.24.51.36.86.36.33 0 .62-.12.86-.37.25-.24.37-.53.37-.86 0-.34-.12-.63-.36-.87zm-5.83-4.09A4.15 4.15 0 0 1 7.5 11.8c-1.19 0-2.2-.43-3.05-1.27A4.15 4.15 0 0 1 3.18 7.5c0-1.19.42-2.2 1.26-3.05A4.15 4.15 0 0 1 7.5 3.18c1.18 0 2.2.42 3.04 1.26A4.15 4.15 0 0 1 11.8 7.5c0 1.18-.43 2.2-1.27 3.04z"/></svg>