<svg xmlns="http://www.w3.org/2000/svg" width="34" height="20" viewBox="0 0 34 20"><path fill="#5cbbf7" d="M23.18 0c-2.3 0-4.43.67-6.18 1.8 1.05.68 1.96 1.52 2.69 2.49h-5.38c.73-.97 1.64-1.81 2.69-2.49A11.39 11.39 0 0 0 10.82 0C4.84 0 0 4.48 0 10s4.84 10 10.82 10c2.3 0 4.43-.67 6.18-1.8a10.54 10.54 0 0 1-2.7-2.49h5.4c-.74.97-1.65 1.81-2.7 2.49a11.39 11.39 0 0 0 6.18 1.8C29.16 20 34 15.52 34 10S29.15 0 23.18 0zm-2.01 7.14c.15.47.27.94.34 1.43h-9.03c.08-.49.2-.96.35-1.43zm-8.34 5.72a9.32 9.32 0 0 1-.35-1.43h9.04c-.08.49-.2.96-.35 1.43z"/></svg>