<svg xmlns="http://www.w3.org/2000/svg" width="31" height="30" viewBox="0 0 31 30"><defs><linearGradient id="a" x1="260.06" x2="260.06" y1="510.06" y2="481.06" gradientUnits="userSpaceOnUse"><stop offset="0" stop-color="#e19c00" stop-opacity="0"/><stop offset="1" stop-color="#e19c00" stop-opacity=".15"/></linearGradient></defs><path fill="#33c04a" d="M29.87 15.87l-2.2-3.43c-.18-.27-.24-.6-.17-.91l.88-3.96a1.22 1.22 0 0 0-.85-1.43L23.6 4.9c-.31-.1-.58-.31-.73-.6L20.94.72c-.3-.56-.98-.8-1.58-.57L15.54 1.7c-.3.12-.65.12-.95 0L10.76.15c-.6-.23-1.28 0-1.58.57L7.25 4.3c-.15.29-.41.5-.72.6L2.59 6.14c-.61.2-.98.8-.84 1.43l.87 3.96c.07.31.01.64-.16.91l-2.2 3.43c-.35.54-.22 1.24.29 1.63l3.27 2.48c.25.2.43.48.47.8l.56 4.02c.09.62.65 1.08 1.29 1.06l4.13-.16c.33-.01.65.1.89.32l3.06 2.72c.48.43 1.2.43 1.68 0l3.07-2.72c.24-.22.56-.33.89-.32l4.13.16c.64.02 1.2-.44 1.29-1.06l.56-4.02c.04-.32.21-.6.47-.8l3.27-2.48c.5-.4.63-1.1.29-1.63z"/><path fill="url(#a)" d="M274.87 496.87l-2.2-3.43c-.18-.27-.24-.6-.17-.91l.88-3.96a1.22 1.22 0 0 0-.85-1.43l-3.93-1.24c-.31-.1-.58-.31-.73-.6l-1.93-3.58c-.3-.56-.98-.8-1.58-.57l-3.82 1.54c-.3.12-.65.12-.95 0l-3.83-1.54c-.6-.23-1.28 0-1.58.57l-1.93 3.58c-.15.29-.41.5-.72.6l-3.94 1.24c-.61.2-.98.8-.84 1.43l.87 3.96c.07.31.01.64-.16.91l-2.2 3.43c-.35.54-.22 1.24.29 1.63l3.27 2.48c.25.2.43.48.47.8l.56 4.02c.09.62.65 1.08 1.29 1.06l4.13-.16c.33-.01.65.1.89.32l3.06 2.72c.48.43 1.2.43 1.68 0l3.07-2.72c.24-.22.56-.33.89-.32l4.13.16c.64.02 1.2-.44 1.29-1.06l.56-4.02c.04-.32.21-.6.47-.8l3.27-2.48c.5-.4.63-1.1.29-1.63z" transform="translate(-245 -481)"/></svg>