<svg xmlns="http://www.w3.org/2000/svg" width="29" height="30" viewBox="0 0 29 30"><defs><linearGradient id="a" x1="259.5" x2="259.5" y1="410" y2="380" gradientUnits="userSpaceOnUse"><stop offset="0" stop-color="#e19c00" stop-opacity="0"/><stop offset="1" stop-color="#e19c00" stop-opacity=".15"/></linearGradient></defs><path fill="#f6515b" d="M16.22 17.96V30h9.74c1.27 0 2.3-1.04 2.3-2.33v-9.71zm-3.44 0H.75v9.7A2.31 2.31 0 0 0 3.04 30h9.74zM26.7 8.83h-4.3a5.3 5.3 0 0 0 1.39-.9 4.68 4.68 0 0 0 0-6.53 4.5 4.5 0 0 0-6.43 0c-.74.75-1.45 2.6-2.02 4.5a3.13 3.13 0 0 0-.85-.12c-.29 0-.56.05-.83.12-.59-1.92-1.3-3.8-2.04-4.55a4.49 4.49 0 0 0-6.43 0 4.68 4.68 0 0 0 0 6.53c.32.33.85.65 1.5.95H2.3A2.31 2.31 0 0 0 0 11.16v1.98a2.31 2.31 0 0 0 2.3 2.33h10.48V8.92h3.44v6.55h10.49c1.26 0 2.29-1.04 2.29-2.33v-1.98a2.31 2.31 0 0 0-2.3-2.33zm-7.72-5.78a2.21 2.21 0 0 1 3.18 0c.43.43.66 1 .66 1.62 0 .6-.23 1.18-.65 1.61-.48.46-2.34 1.16-4.63 1.82a3.15 3.15 0 0 0-.27-.64c.63-2.2 1.28-3.95 1.71-4.4zM6.82 3A2.21 2.21 0 0 1 10 3c.43.47 1.1 2.24 1.73 4.46-.1.19-.19.4-.25.6C9.17 7.4 7.3 6.7 6.82 6.23a2.31 2.31 0 0 1 0-3.23z"/><path fill="url(#a)" d="M261.22 397.96V410h9.74c1.27 0 2.3-1.04 2.3-2.33v-9.71zm-3.44 0h-12.03v9.7a2.31 2.31 0 0 0 2.29 2.34h9.74zm13.93-9.13h-4.3a5.3 5.3 0 0 0 1.39-.9 4.68 4.68 0 0 0 0-6.53 4.5 4.5 0 0 0-6.43 0c-.74.75-1.45 2.6-2.02 4.5a3.13 3.13 0 0 0-.85-.12c-.29 0-.56.05-.83.12-.59-1.92-1.3-3.8-2.04-4.55a4.49 4.49 0 0 0-6.43 0 4.68 4.68 0 0 0 0 6.53c.32.33.85.65 1.5.95h-4.4a2.31 2.31 0 0 0-2.3 2.33v1.98a2.31 2.31 0 0 0 2.3 2.33h10.48v-6.55h3.44v6.55h10.49c1.26 0 2.29-1.04 2.29-2.33v-1.98a2.31 2.31 0 0 0-2.3-2.33zm-7.72-5.78a2.21 2.21 0 0 1 3.18 0c.43.43.66 1 .66 1.62 0 .6-.23 1.18-.65 1.61-.48.46-2.34 1.16-4.63 1.82a3.15 3.15 0 0 0-.27-.64c.63-2.2 1.29-3.95 1.71-4.4zm-12.17-.05a2.21 2.21 0 0 1 3.18 0c.43.47 1.1 2.24 1.73 4.46-.1.19-.19.4-.25.6-2.31-.66-4.18-1.37-4.66-1.83a2.31 2.31 0 0 1 0-3.23z" transform="translate(-245 -380)"/></svg>