<svg xmlns="http://www.w3.org/2000/svg" width="19" height="20" viewBox="0 0 19 20"><defs><linearGradient id="a" x1="1024.5" x2="1024.5" y1="847" y2="827" gradientUnits="userSpaceOnUse"><stop offset="0" stop-color="#e19c00" stop-opacity="0"/><stop offset="1" stop-color="#e19c00" stop-opacity=".15"/></linearGradient></defs><path fill="#fff" d="M10.63 11.97V20h6.38c.83 0 1.5-.7 1.5-1.55v-6.48zm-2.26 0H.49v6.47c0 .86.67 1.56 1.5 1.56h6.38zM17.5 5.9h-2.82c.39-.2.71-.4.91-.6a3.16 3.16 0 0 0 0-4.36 2.9 2.9 0 0 0-4.21 0c-.48.5-.95 1.74-1.33 3a1.98 1.98 0 0 0-.55-.08c-.19 0-.37.04-.55.09C8.57 2.65 8.1 1.4 7.62.9a2.91 2.91 0 0 0-4.21 0 3.16 3.16 0 0 0 0 4.36c.21.21.56.42.98.63H1.5c-.83 0-1.5.7-1.5 1.55v1.32c0 .86.67 1.56 1.5 1.56h6.87V5.95h2.26v4.36h6.87c.83 0 1.5-.69 1.5-1.55V7.44c0-.86-.67-1.55-1.5-1.55zm-5.06-3.86a1.45 1.45 0 0 1 2.09 0 1.57 1.57 0 0 1 0 2.16c-.31.3-1.53.77-3.03 1.21-.05-.15-.1-.3-.18-.43.41-1.46.84-2.63 1.12-2.93zM4.47 2a1.45 1.45 0 0 1 2.08 0c.29.31.72 1.5 1.13 2.97-.06.13-.12.26-.16.4-1.51-.44-2.74-.91-3.05-1.21a1.57 1.57 0 0 1 0-2.16z"/><path fill="url(#a)" d="M1025.63 838.97V847h6.38c.83 0 1.5-.7 1.5-1.55v-6.48zm-2.26 0h-7.88v6.47c0 .86.67 1.56 1.5 1.56h6.38zm9.13-6.08h-2.82c.39-.2.71-.4.91-.6a3.16 3.16 0 0 0 0-4.36 2.9 2.9 0 0 0-4.21 0c-.48.5-.95 1.74-1.33 3a1.98 1.98 0 0 0-.55-.08c-.19 0-.37.04-.55.09-.38-1.29-.85-2.54-1.33-3.04a2.91 2.91 0 0 0-4.21 0 3.16 3.16 0 0 0 0 4.36c.21.21.56.42.98.63h-2.89c-.83 0-1.5.7-1.5 1.55v1.32c0 .86.67 1.56 1.5 1.56h6.87v-4.37h2.26v4.36h6.87c.83 0 1.5-.69 1.5-1.55v-1.32c0-.86-.67-1.55-1.5-1.55zm-5.06-3.86a1.45 1.45 0 0 1 2.09 0 1.57 1.57 0 0 1 0 2.16c-.31.3-1.53.77-3.03 1.21-.05-.15-.1-.3-.18-.43.41-1.46.84-2.63 1.12-2.93zm-7.97-.03a1.45 1.45 0 0 1 2.08 0c.29.31.72 1.5 1.13 2.97-.06.13-.12.26-.16.4-1.51-.44-2.74-.91-3.05-1.21a1.57 1.57 0 0 1 0-2.16z" transform="translate(-1015 -827)"/></svg>