<svg xmlns="http://www.w3.org/2000/svg" width="26" height="30" viewBox="0 0 26 30"><defs><linearGradient id="a" x1="260" x2="260" y1="558" y2="528" gradientUnits="userSpaceOnUse"><stop offset="0" stop-color="#e19c00" stop-opacity="0"/><stop offset="1" stop-color="#e19c00" stop-opacity=".15"/></linearGradient></defs><path fill="#fbb12f" d="M23.63 16.58A2.3 2.3 0 0 0 26 14.32c.05-1.3-.83-2.48-2.08-2.54l-8.32-1.07s1.73-2.97 1.73-7.38C17.33.4 15.3 0 14.08 0c-.94 0-1.2 1.88-1.2 1.88-.21 1.2-.5 2.26-1.46 4.2-1.09 2.17-2.57 1.97-4.3 3.9a10.07 10.07 0 0 0-1.2 1.76l-.12.23-.2.38c-1.06 1.1-2.72.98-3.43.98-1.43 0-2.17.85-2.17 2.22v10.16c0 1.54.61 2.06 2.17 2.06h2.16c1.1 0 1.95.64 3.25 1.11 1.8.64 4.46 1.12 9.06 1.12h3.3a2.6 2.6 0 0 0 1.82-.79c.17-.16.34-.4.42-.87l.02-.41c.06-1.34-.73-1.82-1.17-1.97.01 0 0-.02.03-.01l1.4.06c1.26.06 2.5-.87 2.5-2.44 0-1.3-1.03-2.23-2.28-2.29l.75.03a2.31 2.31 0 0 0 2.37-2.26 2.33 2.33 0 0 0-2.17-2.47z"/><path fill="url(#a)" d="M270.63 544.58a2.3 2.3 0 0 0 2.37-2.26c.05-1.3-.83-2.48-2.08-2.54l-8.32-1.07s1.73-2.97 1.73-7.38c0-2.94-2.04-3.33-3.25-3.33-.94 0-1.2 1.88-1.2 1.88-.21 1.2-.5 2.26-1.46 4.2-1.09 2.17-2.57 1.97-4.3 3.9a10.07 10.07 0 0 0-1.2 1.76l-.12.23-.2.38c-1.06 1.1-2.72.98-3.43.98-1.43 0-2.17.85-2.17 2.22v10.16c0 1.54.61 2.06 2.17 2.06h2.16c1.1 0 1.95.64 3.25 1.11 1.8.64 4.46 1.12 9.06 1.12h3.3a2.6 2.6 0 0 0 1.82-.79c.17-.16.34-.4.42-.87l.02-.41c.06-1.34-.73-1.82-1.17-1.97.01 0 0-.02.03-.01l1.4.06c1.26.06 2.5-.87 2.5-2.44 0-1.3-1.03-2.23-2.28-2.29l.75.03a2.31 2.31 0 0 0 2.37-2.26 2.33 2.33 0 0 0-2.17-2.47z" transform="translate(-247 -528)"/></svg>