<svg xmlns="http://www.w3.org/2000/svg" width="20" height="16" viewBox="0 0 20 16"><path fill="#ffdc36" d="M19.45.3a8.6 8.6 0 0 1-2.6.98 4.1 4.1 0 0 0-3-1.28 4.07 4.07 0 0 0-4 4.96A11.73 11.73 0 0 1 1.39.74a4.02 4.02 0 0 0 1.27 5.39c-.67-.02-1.3-.2-1.85-.51v.05A4.07 4.07 0 0 0 4.1 9.64a4.27 4.27 0 0 1-1.86.07 4.1 4.1 0 0 0 3.83 2.8A8.34 8.34 0 0 1 0 14.18 11.72 11.72 0 0 0 6.29 16 11.5 11.5 0 0 0 17.96 4.5l-.01-.52c.8-.57 1.5-1.28 2.05-2.09-.74.32-1.53.54-2.36.64.85-.5 1.5-1.29 1.8-2.23z"/></svg>