<svg xmlns="http://www.w3.org/2000/svg" width="15" height="21" viewBox="0 0 15 21"><path fill="#b0e2fa" d="M13.37 15.3l-3.11-1.6a.89.89 0 0 1-.48-.78v-1.13l.24-.32c.4-.58.72-1.23.96-1.93.46-.22.76-.68.76-1.2V7c0-.32-.12-.63-.33-.88V4.35c.02-.18.09-1.27-.68-2.17C10.06 1.4 8.97 1 7.5 1s-2.56.4-3.23 1.18c-.77.9-.7 1.99-.68 2.17v1.77c-.21.25-.33.56-.33.88v1.33c0 .4.18.79.49 1.04.3 1.2.92 2.12 1.14 2.41v1.1c0 .33-.17.62-.45.78l-2.91 1.62A3.03 3.03 0 0 0 0 17.92V19c0 1.58 4.91 2 7.5 2s7.5-.42 7.5-2v-1.01c0-1.15-.62-2.18-1.63-2.7z"/></svg>