<svg xmlns="http://www.w3.org/2000/svg" width="45" height="14" viewBox="0 0 45 14"><path fill="#5cbbf7" d="M42.04.24H39.2c-.87 0-1.53.23-1.91 1.05l-5.43 11.54h3.84s.62-1.55.77-1.89h4.68l.44 1.89H45zm-4.51 8.12l1.45-3.52.5-1.2.24 1.08.85 3.64zm-8.48-3.07C27.77 4.7 27 4.32 27 3.73c0-.53.66-1.09 2.1-1.09 1.2-.01 2.06.23 2.73.48l.33.15.5-2.73C31.93.29 30.8.01 29.38.01c-3.62 0-6.16 1.71-6.18 4.16-.02 1.81 1.81 2.82 3.2 3.42 1.43.62 1.9 1.01 1.9 1.56-.01.85-1.14 1.23-2.2 1.23a8.1 8.1 0 0 1-3.43-.66l-.48-.2-.51 2.82c.86.35 2.44.66 4.08.67 3.84 0 6.34-1.69 6.36-4.3.02-1.43-.96-2.53-3.07-3.42zM8.55 6.71L7.32 1.14C7.1.38 6.49.15 5.72.12H.05L0 .37C4.42 1.38 7.34 3.8 8.55 6.71zm8-6.47h-3.88L9.09 8.83l-.39-1.3C8 5.97 6 3.73 3.64 2.31l3.27 10.5h3.87zm1.47-.01h3.66l-2.29 12.59h-3.66z"/></svg>